<?xml version="1.0" encoding="utf-8"?>
<!-- Generator: Adobe Illustrator 19.2.1, SVG Export Plug-In . SVG Version: 6.00 Build 0)  -->
<svg version="1.1" id="Layer_1" xmlns="http://www.w3.org/2000/svg" xmlns:xlink="http://www.w3.org/1999/xlink" x="0px" y="0px"
	 viewBox="0 0 500 500" style="enable-background:new 0 0 500 500;" xml:space="preserve">
<style type="text/css">
	.st0{fill:#1A1A1A;}
	.st1{fill:#5E5E5E;}
	.st2{fill:#0071BC;}
</style>
<g>
	<path class="st0" d="M375.9,83.4c-3.1,0.5-3.1,2.8-3.8,4.6c-13.2,36-26.3,72-39.4,108c-24.5,67.3-48.4,134.8-73.8,201.8
		c-14.5,38.4-47.1,61.4-95.4,66.2C109.2,469.6,62.6,442.8,45,404c-23.2-51,9-106.8,71.5-123.5c32.8-8.8,64.5-5.5,93.9,9.8
		c10.8,5.6,20.6,12.6,28.5,21.1c1.1,1.2,2.1,3.2,4.2,2.9c2.3-0.3,2.1-2.5,2.6-3.9c30.5-80.5,60.9-161,91.4-241.6
		c6.6-17.5,13.3-35,20.1-52.4c0.5-1.4,0.4-3.8,2.6-3.8c2-0.1,2.5,2.2,3.4,3.5c20.2,32.3,41.3,64.2,63.3,95.7
		c6.2,8.8,12.8,17.5,19.1,26.3c12.2,16.9,16.9,35.4,16.9,54.9c0,2.4-0.9,4.4-2.8,6.2c-2.6,2.5-5.1,5.1-7.8,7.5
		c-5.6,5-10.2,10.3-11.3,17.6c-0.8,4.9-2.8,9.8-8.1,13.1c-0.3-2.4-0.4-4.8,0.1-7.1c1.6-7.6,3-15.2,4.8-22.7
		c1.5-6.5,1.9-12.7-0.3-19.2c-4.3-12.1-8.9-24.1-14.8-35.7c-9.3-18.5-20.6-36.2-32.3-53.7c-3.5-5.2-7.3-10.3-11-15.4
		C378.3,82.6,377,79.9,375.9,83.4z M374.9,80.5c0.3,0.2,0.7,0.6,0.9,0.5c0.7-0.2,0.5-0.7,0.3-1.1c-0.4-0.3-1-1-1.2-0.9
		C374,79.4,374.5,80,374.9,80.5z M45.4,353.2c0.1,0.7,0.2,1.3,0.4,2c3.5,11.9,7.4,23.6,14.4,34.5c3.4,5.3,5.1,5.8,11.1,2.3
		c12.5-7.2,26.2-12.8,39.1-19.3c16.7-8.5,33.5-16.7,47.4-28.7c11.8-10.2,26.8-17.3,43.5-20.9c8.8-1.9,17.8-3,25.1-7.9
		c0.4-0.2,0.9-0.3,1.3-0.5c4.7-1.9,5-3,1.3-6.1c-9.6-8.1-20.8-14.3-33.2-19.2c-21.8-8.5-44.5-11.5-68.1-7.2
		c-34.2,6.1-59.4,22-74.2,48.7C49.6,337.8,46.9,345.4,45.4,353.2z M358.2,26.3c-0.5-0.1-1.1-0.1-1.6-0.2
		c-35.2,95.6-70.4,191.2-105.8,287.4c3.3-2.2,5.1-4.7,6.7-7.3c4.1-6.3,7.5-12.9,10.5-19.6c17.2-37.8,30.6-76.7,45.8-115
		c10.2-25.7,20-51.6,34-76.2c4.9-8.6,9.7-17.5,19.8-23c1.6-0.9,1.2-1.6,0.1-2.5c-6.3-5.3-7.6-12-8.1-19
		C359.1,42.7,358.7,34.5,358.2,26.3z"/>
	<path d="M45.4,353.2c1.5-7.8,4.2-15.3,8.1-22.4c14.8-26.6,40-42.6,74.2-48.7c23.6-4.2,46.3-1.3,68.1,7.2
		c12.4,4.9,23.6,11.1,33.2,19.2c3.7,3.1,3.4,4.2-1.3,6.1c-0.4,0.2-0.9,0.3-1.3,0.5c-7.4,4.9-16.3,6-25.1,7.9
		c-16.7,3.6-31.6,10.7-43.5,20.9c-13.9,12-30.7,20.2-47.4,28.7c-12.9,6.6-26.6,12.2-39.1,19.3c-6,3.4-7.7,2.9-11.1-2.3
		c-7-10.9-10.9-22.7-14.4-34.5C45.6,354.5,45.5,353.8,45.4,353.2z"/>
	<path d="M358.2,26.3c0.5,8.2,0.8,16.4,1.4,24.6c0.5,7,1.8,13.7,8.1,19c1.1,0.9,1.4,1.7-0.1,2.5c-10.2,5.5-14.9,14.4-19.8,23
		c-14,24.5-23.8,50.4-34,76.2c-15.2,38.3-28.5,77.2-45.8,115c-3.1,6.7-6.5,13.3-10.5,19.6c-1.6,2.6-3.4,5.1-6.7,7.3
		c35.4-96.2,70.6-191.8,105.8-287.4C357.2,26.2,357.7,26.3,358.2,26.3z"/>
	<path class="st1" d="M374.9,80.5c-0.4-0.5-0.9-1.1,0-1.5c0.2-0.1,0.8,0.6,1.2,0.9C375.8,80.1,375.4,80.3,374.9,80.5z"/>
	<path class="st1" d="M376.2,79.9c0.2,0.4,0.4,0.9-0.3,1.1c-0.2,0.1-0.6-0.3-0.9-0.5C375.4,80.3,375.8,80.1,376.2,79.9z"/>
</g>
<g>
	<path class="st2" d="M86.8,448.6c22.9,1.3,43.5-4.1,62.4-18.3c-26.9-4.3-35.6-18.1-39.2-30.7c5.4,0.3,10.8,0.9,17.6-1.3
		c-10.7-3.2-18.6-8.5-24.9-16c-6.5-7.7-8.2-16.8-9-26.8c6.1,1.6,10.8,5.1,17.3,4.1c-3.6-4.1-7.3-7.5-9.9-11.6
		c-8.4-13-9.8-26.9-3.9-41.4c1.8-4.5,3.3-4.5,6.5-0.9c20.1,23,45.6,36.1,75.6,40.8c0.6,0.1,1.1,0.2,1.7,0.3c8.7,1.1,8.7,1.1,8.5-7.7
		c-0.5-18.9,7.8-32.8,24.7-40.9c16.9-8.2,33.1-5.7,47.5,6.2c2.9,2.4,5.3,2.9,8.8,2c7.1-2,13.8-4.9,21.4-8.6
		c-1.3,6.5-4.7,10.6-8.1,14.8c-1.8,2.2-6.5,4.3-5,6.5c1.9,3,5.7-0.7,8.8-1c3.1-0.3,5.8-3.1,9.7-1.9c-4.8,7.6-11,13.6-17.8,18.9
		c-2,1.5-2.7,2.7-2.7,5.5c0.4,32.3-10,61-31.3,85.2c-31,35.2-70.3,46.5-115.9,39.5C114.2,463,100,457.2,86.8,448.6z"/>
</g>
</svg>
